<?xml version="1.0" encoding="utf-8"?>
<!-- Generator: Adobe Illustrator 17.0.2, SVG Export Plug-In . SVG Version: 6.00 Build 0)  -->
<!DOCTYPE svg PUBLIC "-//W3C//DTD SVG 1.1//EN" "http://www.w3.org/Graphics/SVG/1.1/DTD/svg11.dtd">
<svg version="1.1" id="Layer_1" xmlns="http://www.w3.org/2000/svg" xmlns:xlink="http://www.w3.org/1999/xlink" x="0px" y="0px"
	 width="57.78px" height="14.955px" viewBox="0 0 57.78 14.955" enable-background="new 0 0 57.78 14.955" xml:space="preserve">
<g>
	<g>
		<polygon fill="#FFFFFF" points="0.899,9.033 4.659,9.033 4.659,14.848 6.086,14.848 6.086,9.033 8.073,9.033 8.073,7.625 0,7.625 
					"/>
		<path fill="#FFFFFF" d="M16.101,11.307c0.291-0.374,0.446-0.864,0.446-1.444c0.002-0.749-0.275-1.328-0.723-1.699
			c-0.446-0.372-1.042-0.539-1.671-0.539H10.96v7.223h1.408V12.15h1.212l1.354,2.698h1.631l-1.432-2.865
			C15.525,11.844,15.859,11.62,16.101,11.307z M12.368,8.994h1.785c0.309,0,0.545,0.086,0.702,0.231
			c0.157,0.145,0.253,0.355,0.255,0.668c0,0.163-0.026,0.298-0.07,0.407c-0.067,0.163-0.171,0.275-0.317,0.356
			c-0.146,0.08-0.339,0.125-0.569,0.125h-1.785V8.994z"/>
		<path fill="#FFFFFF" d="M21.608,7.625l-2.6,7.223h1.493l0.565-1.617h2.441l0.575,1.617h0.143h1.38l-2.631-7.223H21.608z
			 M22.31,9.752c0.099,0.296,0.209,0.615,0.291,0.858l0.001,0.001l0.452,1.299H21.52l0.451-1.289l0-0.001
			c0.097-0.28,0.212-0.636,0.311-0.952C22.291,9.697,22.3,9.723,22.31,9.752z"/>
		<path fill="#FFFFFF" d="M32.593,11.344c0,0.189,0.002,0.524,0.005,0.844c-0.066-0.112-0.131-0.22-0.186-0.307l-2.65-4.255h-1.357
			v7.223h1.398V11.11c0-0.19-0.002-0.521-0.005-0.835c0.044,0.073,0.088,0.142,0.128,0.204l0,0l2.777,4.37h0.111h1.176V7.625h-1.398
			V11.344z"/>
		<path fill="#FFFFFF" d="M41.278,10.966c-0.368-0.213-0.814-0.372-1.324-0.527l-0.004-0.001l0.003,0.001
			c-0.582-0.172-0.941-0.318-1.127-0.454c-0.094-0.068-0.143-0.127-0.173-0.187c-0.03-0.06-0.045-0.129-0.045-0.227
			c0.002-0.18,0.061-0.324,0.198-0.44c0.137-0.115,0.372-0.205,0.74-0.205c0.315,0,0.575,0.05,0.807,0.146
			c0.231,0.097,0.436,0.242,0.636,0.445l0.144,0.147l1.009-1.023L41.994,8.5c-0.316-0.306-0.663-0.553-1.055-0.722
			c-0.392-0.17-0.829-0.26-1.316-0.26c-0.666,0-1.274,0.19-1.723,0.553c-0.45,0.361-0.731,0.902-0.729,1.549
			c0,0.323,0.046,0.602,0.146,0.844c0.149,0.365,0.423,0.633,0.781,0.836c0.359,0.205,0.806,0.358,1.351,0.521
			c0.562,0.167,0.932,0.317,1.136,0.466c0.103,0.074,0.163,0.143,0.201,0.214c0.038,0.071,0.056,0.149,0.057,0.255
			c0,0.142-0.024,0.257-0.068,0.349c-0.065,0.137-0.17,0.238-0.355,0.318c-0.184,0.078-0.447,0.124-0.787,0.124
			c-0.577,0.002-1.205-0.287-1.624-0.743l-0.141-0.153l-1.015,0.989l0.123,0.144c0.611,0.715,1.527,1.172,2.579,1.171
			c0.902,0,1.586-0.217,2.049-0.623c0.23-0.202,0.402-0.45,0.513-0.729c0.111-0.279,0.163-0.587,0.163-0.916
			c0-0.327-0.057-0.613-0.17-0.861C41.939,11.453,41.645,11.178,41.278,10.966z"/>
		<polygon fill="#FFFFFF" points="45.4,14.848 45.602,14.848 46.828,14.848 46.828,7.625 45.4,7.625 		"/>
		<polygon fill="#FFFFFF" points="57.78,7.625 49.763,7.625 49.763,9.033 51.75,9.033 51.75,14.848 53.178,14.848 53.178,9.033 
			56.874,9.033 		"/>
	</g>
	<g>
		<path fill="#FFFFFF" d="M21.726,0c-0.697-0.002-1.274,0.276-1.66,0.75c-0.387,0.474-0.588,1.13-0.588,1.888
			c0,0.757,0.2,1.414,0.588,1.887c0.386,0.474,0.964,0.752,1.66,0.75c0.696,0.002,1.274-0.276,1.66-0.75
			c0.387-0.474,0.588-1.13,0.588-1.887c0-0.757-0.2-1.414-0.588-1.888C23,0.276,22.423-0.002,21.726,0z M22.419,3.623
			c-0.153,0.229-0.356,0.356-0.693,0.36c-0.337-0.004-0.54-0.131-0.693-0.36c-0.151-0.23-0.23-0.58-0.23-0.986
			c-0.001-0.406,0.079-0.755,0.23-0.986c0.153-0.229,0.356-0.356,0.693-0.36c0.336,0.004,0.539,0.131,0.693,0.36
			c0.151,0.231,0.23,0.58,0.229,0.986C22.649,3.044,22.57,3.393,22.419,3.623z"/>
		<path fill="#FFFFFF" d="M29.242,2.343c-0.056,0.125-0.114,0.263-0.167,0.394c-0.055-0.134-0.114-0.274-0.171-0.396l-1.044-2.265
			h-1.203V5.2h1.278V3.273c0-0.049-0.001-0.112-0.001-0.18l1.122,2.457l1.122-2.457c-0.001,0.068-0.001,0.131-0.001,0.18V5.2h0.171
			h1.128V0.075h-1.225L29.242,2.343z"/>
		<path fill="#FFFFFF" d="M36.456,2.378v1.237h0.709c-0.032,0.088-0.073,0.164-0.136,0.22c-0.104,0.093-0.277,0.162-0.58,0.163
			c-0.306-0.002-0.528-0.13-0.697-0.363c-0.167-0.234-0.267-0.582-0.266-0.997c0-0.418,0.098-0.763,0.263-0.992
			c0.167-0.228,0.386-0.352,0.694-0.354c0.231,0.001,0.37,0.056,0.48,0.141c0.111,0.086,0.198,0.217,0.282,0.386l0.071,0.142
			l1.216-0.502L38.424,1.3c-0.165-0.388-0.391-0.717-0.715-0.947C37.385,0.122,36.97-0.001,36.456,0
			c-0.672-0.001-1.256,0.275-1.661,0.747c-0.406,0.471-0.635,1.129-0.635,1.891c0,0.786,0.219,1.445,0.618,1.911
			c0.398,0.466,0.976,0.728,1.644,0.727c0.589,0,1.115-0.187,1.493-0.55c0.379-0.363,0.598-0.896,0.597-1.548v-0.8H36.456z"/>
	</g>
</g>
</svg>
