<?xml version="1.0" encoding="utf-8"?>
<!-- Generator: Adobe Illustrator 17.0.2, SVG Export Plug-In . SVG Version: 6.00 Build 0)  -->
<!DOCTYPE svg PUBLIC "-//W3C//DTD SVG 1.1//EN" "http://www.w3.org/Graphics/SVG/1.1/DTD/svg11.dtd">
<svg version="1.1" id="Layer_1" xmlns="http://www.w3.org/2000/svg" xmlns:xlink="http://www.w3.org/1999/xlink" x="0px" y="0px"
	 width="114.966px" height="100.863px" viewBox="0 0 114.966 100.863" enable-background="new 0 0 114.966 100.863"
	 xml:space="preserve">
<g>
	<g>
		<path fill="#FFFFFF" d="M67.09,36.251v21.504c0.465-0.325,1.029-0.518,1.639-0.518c0.583,0,1.125,0.175,1.578,0.475V39.468h28.948
			l2.077-3.217L67.09,36.251z"/>
		<g>
			<g>
				<g>
					<path fill="#FFFFFF" d="M44.656,68.583c0.459-0.312,1.012-0.494,1.608-0.494c0.596,0,1.15,0.182,1.608,0.494V43.729H18.475
						l2.077,3.217h24.104V68.583z"/>
					<path fill="#FFFFFF" d="M46.265,73.817c-0.596,0-1.15-0.183-1.608-0.494v10.954l3.217,4.982V73.322
						C47.415,73.634,46.861,73.817,46.265,73.817z"/>
				</g>
				<path fill="#FFFFFF" d="M49.129,70.952h-1.121c-0.001,0.485-0.193,0.913-0.51,1.232c-0.319,0.317-0.748,0.51-1.232,0.51
					c-0.485-0.001-0.913-0.193-1.232-0.51c-0.317-0.319-0.51-0.748-0.51-1.232c0.001-0.485,0.193-0.913,0.51-1.232
					c0.319-0.317,0.747-0.51,1.232-0.51c0.485,0.001,0.913,0.193,1.232,0.51c0.317,0.319,0.51,0.747,0.51,1.232H49.129h1.121
					c0.001-1.097-0.448-2.101-1.167-2.818c-0.718-0.72-1.721-1.168-2.818-1.167c-1.097,0-2.101,0.448-2.818,1.167
					c-0.72,0.718-1.168,1.721-1.167,2.818c-0.001,1.097,0.448,2.101,1.167,2.818c0.718,0.719,1.721,1.168,2.818,1.167
					c1.097,0.001,2.101-0.448,2.818-1.167c0.72-0.718,1.168-1.721,1.167-2.818H49.129z"/>
				<g>
					<path fill="#99C1E2" d="M77.457,45.338c0-0.597,0.183-1.15,0.495-1.609H52.134v52.128l3.217,4.982V46.946h22.6
						C77.639,46.487,77.457,45.934,77.457,45.338z"/>
					<path fill="#99C1E2" d="M82.69,43.729c0.312,0.459,0.495,1.012,0.495,1.609c0,0.596-0.183,1.15-0.494,1.608h11.748l2.065-3.217
						H82.69z"/>
				</g>
				<g>
					<path fill="#FFFFFF" d="M68.729,62.966c-0.61,0-1.175-0.192-1.639-0.517v26.833l3.217-4.982V62.491
						C69.855,62.791,69.313,62.966,68.729,62.966z"/>
				</g>
				<path fill="#99C1E2" d="M83.185,45.338h-1.121c-0.001,0.485-0.193,0.913-0.511,1.232c-0.319,0.317-0.747,0.51-1.232,0.51
					c-0.485,0-0.913-0.193-1.232-0.51c-0.317-0.319-0.51-0.747-0.51-1.232c0.001-0.485,0.193-0.914,0.51-1.232
					c0.319-0.317,0.748-0.51,1.232-0.51c0.485,0.001,0.913,0.193,1.232,0.51c0.317,0.319,0.51,0.748,0.511,1.232H83.185h1.121
					c0.001-1.097-0.448-2.101-1.167-2.818c-0.718-0.719-1.721-1.168-2.818-1.167c-1.097-0.001-2.101,0.448-2.818,1.167
					c-0.719,0.718-1.168,1.721-1.167,2.818c-0.001,1.097,0.448,2.1,1.167,2.818c0.718,0.719,1.721,1.168,2.818,1.167
					c1.097,0,2.1-0.448,2.818-1.167c0.719-0.718,1.168-1.721,1.167-2.818H83.185z"/>
				<g>
					<path fill="#EF522D" d="M36.077,37.86c0-0.596,0.183-1.15,0.494-1.609H13.646l2.077,3.217h20.848
						C36.259,39.01,36.077,38.456,36.077,37.86z"/>
					<path fill="#EF522D" d="M62.829,95.881l0-59.629H41.311c0.312,0.459,0.494,1.012,0.494,1.609c0,0.596-0.182,1.15-0.494,1.608
						h18.301v61.395L62.829,95.881z"/>
				</g>
				<path fill="#EF522D" d="M41.805,37.86h-1.121c-0.001,0.485-0.193,0.913-0.51,1.232c-0.319,0.317-0.747,0.51-1.232,0.51
					c-0.485-0.001-0.913-0.193-1.232-0.51c-0.317-0.319-0.51-0.748-0.51-1.232c0-0.485,0.193-0.913,0.51-1.232
					c0.319-0.317,0.747-0.51,1.232-0.51c0.485,0,0.913,0.193,1.232,0.51c0.317,0.319,0.51,0.748,0.51,1.232H41.805h1.121
					c0.001-1.097-0.448-2.101-1.167-2.818c-0.718-0.719-1.721-1.168-2.818-1.167c-1.097-0.001-2.1,0.448-2.818,1.167
					c-0.72,0.718-1.168,1.721-1.167,2.818c0,1.097,0.448,2.1,1.167,2.818c0.718,0.72,1.721,1.168,2.818,1.167
					c1.097,0.001,2.101-0.448,2.818-1.167c0.719-0.718,1.168-1.721,1.167-2.818H41.805z"/>
			</g>
			<path fill="#FFFFFF" d="M71.563,60.071h-1.121c-0.001,0.485-0.193,0.913-0.51,1.232c-0.319,0.317-0.747,0.51-1.232,0.51
				c-0.485,0-0.913-0.193-1.232-0.51c-0.317-0.319-0.51-0.748-0.51-1.232c0.001-0.485,0.193-0.913,0.51-1.232
				c0.319-0.317,0.748-0.51,1.232-0.51c0.485,0.001,0.913,0.193,1.232,0.51c0.317,0.319,0.51,0.748,0.51,1.232H71.563h1.121
				c0.001-1.097-0.448-2.101-1.167-2.818c-0.718-0.72-1.721-1.168-2.818-1.167c-1.097-0.001-2.101,0.448-2.818,1.167
				c-0.719,0.718-1.168,1.721-1.167,2.818c-0.001,1.097,0.448,2.1,1.167,2.818c0.718,0.72,1.721,1.168,2.818,1.167
				c1.097,0.001,2.101-0.448,2.818-1.167c0.719-0.718,1.168-1.721,1.167-2.818H71.563z"/>
		</g>
	</g>
	<g>
		<polygon fill="#FFFFFF" points="1.789,17.974 9.27,17.974 9.27,29.543 12.11,29.543 12.11,17.974 16.064,17.974 16.064,15.172 
			0,15.172 		"/>
		<path fill="#FFFFFF" d="M32.037,22.498c0.579-0.744,0.888-1.719,0.887-2.873c0.005-1.49-0.548-2.642-1.438-3.381
			c-0.888-0.74-2.073-1.072-3.325-1.072h-6.352v14.371h2.802v-5.368h2.411l2.694,5.368h3.245l-2.85-5.7
			C30.89,23.566,31.554,23.12,32.037,22.498z M24.61,17.896h3.551c0.615,0.001,1.084,0.171,1.397,0.459
			c0.311,0.288,0.503,0.707,0.506,1.328c0,0.325-0.052,0.592-0.14,0.809c-0.134,0.325-0.34,0.548-0.631,0.709
			c-0.291,0.16-0.675,0.249-1.132,0.249H24.61V17.896z"/>
		<path fill="#FFFFFF" d="M42.995,15.172l-5.174,14.371h2.971l1.124-3.217h4.856l1.143,3.217H48.2h2.746l-5.235-14.371H42.995z
			 M44.39,19.404c0.197,0.588,0.415,1.224,0.579,1.707l0.001,0.003l0.899,2.585h-3.052l0.898-2.565l0-0.001
			c0.193-0.556,0.422-1.265,0.619-1.895C44.354,19.293,44.371,19.347,44.39,19.404z"/>
		<path fill="#FFFFFF" d="M64.85,22.571c0,0.376,0.005,1.042,0.01,1.679c-0.132-0.223-0.261-0.438-0.369-0.612l-5.273-8.465h-2.7
			v14.371H59.3v-7.438c0-0.379-0.005-1.036-0.01-1.662c0.089,0.145,0.175,0.284,0.255,0.406l0,0l5.525,8.694h0.221h2.341V15.172
			H64.85V22.571z"/>
		<path fill="#FFFFFF" d="M82.131,21.82c-0.733-0.424-1.619-0.74-2.633-1.049l-0.008-0.002l0.005,0.002
			c-1.158-0.342-1.872-0.633-2.242-0.903c-0.186-0.134-0.284-0.253-0.345-0.372c-0.06-0.12-0.09-0.256-0.09-0.451
			c0.004-0.357,0.122-0.645,0.393-0.875c0.273-0.229,0.74-0.408,1.471-0.408c0.626,0,1.145,0.099,1.606,0.291
			c0.46,0.193,0.868,0.481,1.265,0.886l0.287,0.293l2.008-2.035l-0.292-0.283c-0.628-0.608-1.319-1.1-2.1-1.437
			c-0.78-0.337-1.649-0.518-2.618-0.517c-1.326,0-2.535,0.379-3.429,1.1c-0.895,0.718-1.454,1.795-1.451,3.082
			c0,0.643,0.091,1.197,0.29,1.68c0.297,0.727,0.841,1.259,1.553,1.663c0.714,0.407,1.604,0.712,2.688,1.036
			c1.118,0.332,1.854,0.631,2.261,0.927c0.204,0.147,0.325,0.285,0.4,0.427c0.075,0.142,0.112,0.297,0.113,0.508
			c0,0.284-0.049,0.511-0.134,0.695c-0.13,0.273-0.339,0.475-0.706,0.633c-0.366,0.156-0.889,0.247-1.567,0.246
			c-1.149,0.003-2.398-0.57-3.231-1.479l-0.281-0.305l-2.021,1.967l0.245,0.287c1.216,1.423,3.037,2.332,5.132,2.331
			c1.795,0,3.156-0.431,4.076-1.239c0.458-0.403,0.799-0.896,1.02-1.451c0.222-0.555,0.325-1.169,0.325-1.822
			c0-0.651-0.113-1.22-0.339-1.714C83.447,22.788,82.862,22.242,82.131,21.82z"/>
		<polygon fill="#FFFFFF" points="90.333,29.543 90.736,29.543 93.174,29.543 93.174,15.172 90.333,15.172 		"/>
		<polygon fill="#FFFFFF" points="114.966,15.172 99.015,15.172 99.015,17.974 102.968,17.974 102.968,29.543 105.809,29.543 
			105.809,17.974 113.164,17.974 		"/>
	</g>
	<g>
		<path fill="#FFFFFF" d="M43.23,0c-1.386-0.004-2.535,0.549-3.304,1.493c-0.771,0.942-1.17,2.249-1.17,3.756
			c0,1.507,0.399,2.813,1.17,3.755c0.769,0.944,1.917,1.496,3.304,1.493c1.386,0.004,2.535-0.549,3.303-1.493
			c0.771-0.942,1.17-2.249,1.17-3.755c0-1.507-0.399-2.813-1.17-3.756C45.764,0.549,44.615-0.003,43.23,0z M44.608,7.209
			c-0.305,0.456-0.709,0.709-1.378,0.717c-0.67-0.008-1.074-0.261-1.379-0.717c-0.3-0.459-0.458-1.153-0.457-1.961
			c-0.001-0.808,0.157-1.503,0.457-1.961c0.305-0.456,0.709-0.709,1.379-0.717c0.669,0.008,1.073,0.261,1.378,0.717
			c0.3,0.459,0.458,1.153,0.457,1.961C45.066,6.056,44.908,6.751,44.608,7.209z"/>
		<path fill="#FFFFFF" d="M58.184,4.661c-0.112,0.248-0.226,0.523-0.332,0.785c-0.109-0.266-0.227-0.544-0.34-0.789L55.436,0.15
			h-2.393v10.197h2.543V6.513c0-0.098-0.001-0.224-0.003-0.359l2.232,4.889l2.232-4.889c-0.002,0.135-0.003,0.261-0.003,0.359v3.834
			h0.34h2.243V0.15h-2.437L58.184,4.661z"/>
		<path fill="#FFFFFF" d="M72.536,4.731v2.461h1.411c-0.063,0.175-0.146,0.327-0.27,0.437c-0.208,0.184-0.551,0.323-1.154,0.324
			c-0.609-0.005-1.05-0.258-1.387-0.722c-0.333-0.465-0.531-1.159-0.53-1.983c-0.001-0.833,0.195-1.519,0.523-1.974
			c0.332-0.454,0.768-0.699,1.381-0.704c0.461,0.002,0.735,0.111,0.956,0.281c0.22,0.171,0.394,0.432,0.561,0.768l0.141,0.283
			l2.419-1l-0.135-0.316c-0.328-0.772-0.778-1.427-1.423-1.884C74.385,0.243,73.56-0.001,72.536,0
			c-1.336-0.002-2.499,0.548-3.305,1.486c-0.808,0.937-1.264,2.247-1.264,3.762c0,1.564,0.436,2.875,1.229,3.802
			c0.791,0.928,1.941,1.449,3.271,1.446c1.171,0.001,2.219-0.371,2.972-1.094c0.754-0.722,1.191-1.783,1.189-3.08V4.731H72.536z"/>
	</g>
</g>
</svg>
