<?xml version="1.0" encoding="UTF-8" standalone="no"?>
<!-- Generator: Adobe Illustrator 15.1.0, SVG Export Plug-In . SVG Version: 6.00 Build 0)  -->

<svg
   xmlns:dc="http://purl.org/dc/elements/1.1/"
   xmlns:cc="http://creativecommons.org/ns#"
   xmlns:rdf="http://www.w3.org/1999/02/22-rdf-syntax-ns#"
   xmlns:svg="http://www.w3.org/2000/svg"
   xmlns="http://www.w3.org/2000/svg"
   xmlns:sodipodi="http://sodipodi.sourceforge.net/DTD/sodipodi-0.dtd"
   xmlns:inkscape="http://www.inkscape.org/namespaces/inkscape"
   version="1.1"
   id="Layer_3"
   x="0px"
   y="0px"
   width="137.94949"
   height="137.94153"
   viewBox="0 0 137.9495 137.94153"
   enable-background="new 0 0 524.511 170.219"
   xml:space="preserve"
   inkscape:version="0.48.4 r9939"
   sodipodi:docname="zipcar.svg"><metadata
     id="metadata56"><rdf:RDF><cc:Work
         rdf:about=""><dc:format>image/svg+xml</dc:format><dc:type
           rdf:resource="http://purl.org/dc/dcmitype/StillImage" /></cc:Work></rdf:RDF></metadata><defs
     id="defs54" /><sodipodi:namedview
     pagecolor="#ffffff"
     bordercolor="#666666"
     borderopacity="1"
     objecttolerance="10"
     gridtolerance="10"
     guidetolerance="10"
     inkscape:pageopacity="0"
     inkscape:pageshadow="2"
     inkscape:window-width="1366"
     inkscape:window-height="743"
     id="namedview52"
     showgrid="false"
     fit-margin-top="0"
     fit-margin-left="0"
     fit-margin-right="0"
     fit-margin-bottom="0"
     inkscape:zoom="0.72448435"
     inkscape:cx="248.32174"
     inkscape:cy="70.780765"
     inkscape:window-x="0"
     inkscape:window-y="0"
     inkscape:window-maximized="1"
     inkscape:current-layer="Layer_3" /><path
     d="M 93.192245,106.98926"
     id="path19"
     inkscape:connector-curvature="0"
     style="fill:none;stroke:#d1232a;stroke-width:1.00329995" /><g
     id="g21"
     transform="translate(-13.933755,-17.948737)"><path
       d="m 146.914,114.929 c 0.355,-0.957 0.692,-1.925 1.008,-2.902 H 91.251 l 2.771,-3.545 h 39.256 c 0.817,0 1.479,-0.639 1.479,-1.426 0,-0.785 -0.662,-1.424 -1.479,-1.424 H 96.252 l 2.72,-3.477 h 19.97 c 0.669,0 1.216,-0.65 1.216,-1.451 0,-0.805 -0.547,-1.456 -1.216,-1.456 H 65.947 L 98.425,56.93 H 44.976 v 11.557 h 28.46 l -29.81,38.661 -6.136,7.766 c 0,0 18.409,0.016 18.574,0.016 h 5.084 c 2.01,-4.958 6.869,-8.457 12.546,-8.457 5.679,0 10.54,3.499 12.551,8.457 h 60.669 z"
       id="path23"
       inkscape:connector-curvature="0"
       style="fill:#ffffff" /><path
       d="m 84.132,120.157 c 0,5.766 -4.674,10.438 -10.439,10.438 -5.761,0 -10.434,-4.672 -10.434,-10.438 0,-5.76 4.673,-10.432 10.434,-10.432 5.765,0.001 10.439,4.672 10.439,10.432 z"
       id="path25"
       inkscape:connector-curvature="0"
       style="fill:#5a5b5d" /><g
       id="g27"><path
         d="M 151.883,87.103 C 151.781,125.192 120.82,155.995 82.727,155.89 44.635,155.796 13.833,124.835 13.934,86.741 14.038,48.647 44.997,17.845 83.086,17.949 c 38.094,0.099 68.898,31.06 68.797,69.154 z"
         id="path29"
         inkscape:connector-curvature="0"
         style="fill:#ffffff" /></g><path
       d="m 18.992,86.696 c 0.094,-35.201 28.699,-63.664 63.899,-63.573 35.199,0.097 63.659,28.7 63.567,63.903 -0.09,35.196 -28.702,63.655 -63.896,63.562 -35.201,-0.095 -63.659,-28.702 -63.57,-63.892 z"
       id="path31"
       inkscape:connector-curvature="0"
       style="fill:#51a601" /><linearGradient
       id="SVGID_1_"
       gradientUnits="userSpaceOnUse"
       x1="89.8862"
       y1="94.701202"
       x2="20.630501"
       y2="25.445499"><stop
         offset="0.4667"
         style="stop-color:#51A601"
         id="stop34" /><stop
         offset="0.5555"
         style="stop-color:#73B733"
         id="stop36" /><stop
         offset="0.7189"
         style="stop-color:#AED689"
         id="stop38" /><stop
         offset="0.8526"
         style="stop-color:#DAECC9"
         id="stop40" /><stop
         offset="0.9496"
         style="stop-color:#F5FAF0"
         id="stop42" /><stop
         offset="1"
         style="stop-color:#FFFFFF"
         id="stop44" /></linearGradient><path
       d="M 23.49,106.673 C 10.939,68.147 40.711,13.567 100.546,26.993 l -77.056,79.68 z"
       id="path46"
       inkscape:connector-curvature="0"
       style="fill:url(#SVGID_1_)" /><path
       d="m 83.298,114.087 c 0.003,5.445 -4.4,9.842 -9.838,9.854 -5.425,0.002 -9.837,-4.399 -9.842,-9.843 -0.004,-5.418 4.402,-9.837 9.833,-9.837 5.435,-0.004 9.843,4.405 9.847,9.826 z"
       id="path48"
       inkscape:connector-curvature="0"
       style="fill:#4d4d5a" /><path
       d="m 143.191,109.128 c 0.334,-0.912 0.648,-1.825 0.944,-2.731 l -54.133,0.033 2.614,-3.347 37.008,-0.027 c 0.766,-0.002 1.385,-0.615 1.385,-1.358 0.004,-0.726 -0.618,-1.327 -1.386,-1.325 l -34.912,0.02 2.563,-3.284 18.822,-0.012 c 0.636,-0.002 1.153,-0.608 1.151,-1.368 0.004,-0.76 -0.52,-1.365 -1.155,-1.364 l -49.952,0.024 30.587,-39.912 -50.382,0.038 0.006,10.883 26.83,-0.014 -28.081,36.469 -5.775,7.32 c 0,0 17.348,0.013 17.512,0.013 l 4.792,-0.012 c 1.886,-4.674 6.468,-7.974 11.824,-7.98 5.347,0.004 9.937,3.297 11.825,7.969 l 57.913,-0.035 z"
       id="path50"
       inkscape:connector-curvature="0"
       style="fill:#ffffff" /></g></svg>