<?xml version="1.0" encoding="UTF-8" standalone="no"?>
<!-- Generator: Adobe Illustrator 16.0.0, SVG Export Plug-In . SVG Version: 6.00 Build 0)  -->

<svg
   xmlns:dc="http://purl.org/dc/elements/1.1/"
   xmlns:cc="http://creativecommons.org/ns#"
   xmlns:rdf="http://www.w3.org/1999/02/22-rdf-syntax-ns#"
   xmlns:svg="http://www.w3.org/2000/svg"
   xmlns="http://www.w3.org/2000/svg"
   xmlns:xlink="http://www.w3.org/1999/xlink"
   xmlns:sodipodi="http://sodipodi.sourceforge.net/DTD/sodipodi-0.dtd"
   xmlns:inkscape="http://www.inkscape.org/namespaces/inkscape"
   version="1.1"
   id="Layer_1"
   x="0px"
   y="0px"
   width="70.5"
   height="108.7"
   viewBox="0 0 70.5 108.7"
   xml:space="preserve"
   inkscape:version="0.48.4 r9939"
   sodipodi:docname="pin-bike.svg"><metadata
     id="metadata3096"><rdf:RDF><cc:Work
         rdf:about=""><dc:format>image/svg+xml</dc:format><dc:type
           rdf:resource="http://purl.org/dc/dcmitype/StillImage" /></cc:Work></rdf:RDF></metadata><defs
     id="defs3094"><defs
       id="defs3056"><filter
         height="7"
         width="39.400002"
         y="111.7"
         x="15.5"
         filterUnits="userSpaceOnUse"
         id="Adobe_OpacityMaskFilter"
         color-interpolation-filters="sRGB"><feFlood
           id="feFlood3059"
           result="back" /><feBlend
           id="feBlend3061"
           mode="normal"
           in2="back"
           in="SourceGraphic" /></filter></defs><mask
       id="SVGID_1_"
       height="7"
       width="39.4"
       y="111.7"
       x="15.5"
       maskUnits="userSpaceOnUse"><g
         id="g3064"
         style="filter:url(#Adobe_OpacityMaskFilter)"><g
           id="g3066"
           style="enable-background:new"><g
             id="g3068"><defs
               id="defs3070"><rect
                 height="11"
                 width="43.400002"
                 y="109.7"
                 x="13.5"
                 id="SVGID_2_" /></defs><clipPath
               id="SVGID_3_"><use
                 id="use3074"
                 style="overflow:visible"
                 xlink:href="#SVGID_2_"
                 x="0"
                 y="0"
                 width="70.5"
                 height="118.7" /></clipPath><g
               clip-path="url(#SVGID_3_)"
               id="g3076"
               transform="translate(-9.536743e-7,-7.629395e-6)"><image
                 sodipodi:absref="/home/rick/projects/omgtransit/omgtransit-web/frontend/www/assets/images/pin-originals/ED65DCD8227B0152.jpg"
                 xlink:href="ED65DCD8227B0152.jpg"
                 style="overflow:visible"
                 width="181"
                 height="46"
                 transform="matrix(0.24,0,0,0.24,13.5273,109.7119)"
                 id="image3078" /></g></g></g></g></mask></defs><sodipodi:namedview
     pagecolor="#ffffff"
     bordercolor="#666666"
     borderopacity="1"
     objecttolerance="10"
     gridtolerance="10"
     guidetolerance="10"
     inkscape:pageopacity="0"
     inkscape:pageshadow="2"
     inkscape:window-width="1366"
     inkscape:window-height="743"
     id="namedview3092"
     showgrid="false"
     fit-margin-top="0"
     fit-margin-left="0"
     fit-margin-right="0"
     fit-margin-bottom="0"
     inkscape:zoom="1.9882056"
     inkscape:cx="35.249999"
     inkscape:cy="9.289348"
     inkscape:window-x="0"
     inkscape:window-y="0"
     inkscape:window-maximized="1"
     inkscape:current-layer="Layer_1" /><path
     inkscape:connector-curvature="0"
     id="path3052"
     d="m 70.499999,35.2 c 0,19.5 -21.5,44.2 -35.2,73.5 C 20.799999,79.4 -9.0627182e-7,54.7 -9.0627182e-7,35.2 -9.0627182e-7,15.7 15.799999,0 35.199999,0 c 19.5,0 35.3,15.8 35.3,35.2"
     style="fill:#9cc100" /><path
     inkscape:connector-curvature="0"
     id="path3054"
     d="m 45.299999,30.5 c 0,0 1.1,-0.2 1.3,0.2 0,0 0.3,0.7 0.7,1.4 -2.9,2.1 -4.6,5.6 -4.6,9.5 0,6.4 4.8,11.5 10.7,11.5 5.8,0.1 10.6,-5.1 10.6,-11.5 0,-6.4 -4.8,-11.5 -10.7,-11.5 -1.5,0 -2.9,0.3 -4.1,0.9 -2.1,-4 -4,-7.8 -4.3,-8.5 -0.6,-1.2 -0.3,-2.1 0.2,-3 0.3,-0.5 0.6,-0.8 0.6,-1.5 0,-0.7 -0.5,-1.2 -1.2,-1.2 h -6.3 c -0.6,0 -1.1,0.5 -1.1,1.2 0,0.7 0.5,1.2 1.1,1.2 h 3.3 c 0.8,0 0.9,0.5 0.7,1 -0.3,0.6 -0.4,1.9 0.1,2.6 0.2,0.3 1.9,3.3 2.1,3.6 0,0 0,0.1 0.1,0.1 l -8.7,11 c -0.4,-0.2 -0.9,-0.3 -1.4,-0.3 -0.4,0 -0.8,0.1 -1.2,0.2 -0.6,-1.1 -1.8,-3.6 -5.5,-10.8 -0.2,-0.4 -1.7,-3.3 -1.7,-3.5 -0.2,-0.3 -0.3,-0.6 -0.5,-0.9 -0.2,-0.5 -0.3,-0.9 0.4,-1 1,-0.2 1.6,-0.3 2.5,-0.4 1,-0.2 0.8,-1.6 0,-1.6 h -8.4 c -0.6,0 -1.1,0.4 -1.1,1.2 0,0.8 0,1.6 0.9,1.6 0.6,0 1.8,-0.2 2.2,-0.3 0.3,-0.1 0.7,0 0.8,0.2 0.2,0.3 0.4,0.8 0.6,1.2 0.1,0.2 0.2,0.6 0,1 -0.2,0.4 -1.3,3.1 -2.6,6.3 -1.1,-0.4 -2.2,-0.6 -3.3,-0.6 -5.9,0 -10.6999999,5.2 -10.6999999,11.5 0,6.4 4.7999999,11.5 10.6999999,11.5 5.5,0 10.1,-4.5 10.7,-10.3 h 2.1 c 0.4,2.1 2.1,3.7 4.2,3.7 2.4,0 4.3,-2.1 4.3,-4.6 0,-0.7 -0.4,-1.9 -0.4,-1.9 l 6.9,-9.2 m -20.6,-3.5 c 0.2,-0.4 0.4,-0.3 0.5,0 2.2,4.3 5,9.9 6,11.8 -0.1,0.1 -0.1,0.3 -0.2,0.4 h -3.2 c -0.6,-3.2 -2.5,-6 -5,-7.6 0.9,-2.1 1.7,-4 1.9,-4.6 m -2.9,7.1 c 1.7,1.1 2.9,3 3.5,5.1 h -5.6 c 0.4,-1.1 1.2,-3 2.1,-5.1 m -4.4,16.4 c -4.5,0 -8.1999999,-4 -8.1999999,-8.8 0,-4.9 3.6999999,-8.8 8.1999999,-8.8 0.8,0 1.6,0.1 2.3,0.4 -1.6,3.8 -3.1,7.4 -3.3,8 -0.1,0.2 -0.1,0.3 -0.1,0.5 0,0.7 0.5,1.2 1.1,1.2 h 8.1 c -0.5,4.2 -3.9,7.5 -8.1,7.5 m 16.9,-6.3 c -1.1,0 -2,-1 -2,-2.2 0,-1.2 0.9,-2.2 2,-2.2 1.1,0 2,1 2,2.2 0.1,1.2 -0.8,2.2 -2,2.2 m 19,6.3 c -4.5,0 -8.2,-4 -8.2,-8.8 0,-2.9 1.3,-5.5 3.4,-7.1 1.8,3.5 3.5,6.8 3.9,7.7 0.3,0.6 1,0.8 1.5,0.5 0.5,-0.3 0.7,-1.1 0.4,-1.6 -0.3,-0.6 -2,-3.9 -3.9,-7.6 0.9,-0.4 1.9,-0.6 2.9,-0.6 4.5,0 8.2,4 8.2,8.8 0,4.7 -3.7,8.7 -8.2,8.7"
     style="fill:#ffffff" /></svg>