<?xml version="1.0" encoding="UTF-8" standalone="no"?>
<!-- Generator: Adobe Illustrator 16.0.0, SVG Export Plug-In . SVG Version: 6.00 Build 0)  -->

<svg
   xmlns:dc="http://purl.org/dc/elements/1.1/"
   xmlns:cc="http://creativecommons.org/ns#"
   xmlns:rdf="http://www.w3.org/1999/02/22-rdf-syntax-ns#"
   xmlns:svg="http://www.w3.org/2000/svg"
   xmlns="http://www.w3.org/2000/svg"
   xmlns:xlink="http://www.w3.org/1999/xlink"
   xmlns:sodipodi="http://sodipodi.sourceforge.net/DTD/sodipodi-0.dtd"
   xmlns:inkscape="http://www.inkscape.org/namespaces/inkscape"
   version="1.1"
   id="Layer_1"
   x="0px"
   y="0px"
   width="70.5"
   height="108.7"
   viewBox="0 0 70.5 108.7"
   xml:space="preserve"
   inkscape:version="0.48.4 r9939"
   sodipodi:docname="pin-car.svg"><metadata
     id="metadata3292"><rdf:RDF><cc:Work
         rdf:about=""><dc:format>image/svg+xml</dc:format><dc:type
           rdf:resource="http://purl.org/dc/dcmitype/StillImage" /></cc:Work></rdf:RDF></metadata><defs
     id="defs3290"><defs
       id="defs3252"><filter
         height="7"
         width="39.400002"
         y="111.7"
         x="15"
         filterUnits="userSpaceOnUse"
         id="Adobe_OpacityMaskFilter"
         color-interpolation-filters="sRGB"><feFlood
           id="feFlood3255"
           result="back" /><feBlend
           id="feBlend3257"
           mode="normal"
           in2="back"
           in="SourceGraphic" /></filter></defs><mask
       id="SVGID_1_"
       height="7"
       width="39.4"
       y="111.7"
       x="15"
       maskUnits="userSpaceOnUse"><g
         id="g3260"
         style="filter:url(#Adobe_OpacityMaskFilter)"><g
           id="g3262"
           style="enable-background:new"><g
             id="g3264"><defs
               id="defs3266"><rect
                 height="11"
                 width="43.400002"
                 y="109.7"
                 x="13"
                 id="SVGID_12_" /></defs><clipPath
               id="SVGID_3_"><use
                 id="use3270"
                 style="overflow:visible"
                 xlink:href="#SVGID_12_"
                 x="0"
                 y="0"
                 width="70.5"
                 height="118.7" /></clipPath><g
               clip-path="url(#SVGID_3_)"
               id="g3272"
               transform="translate(-9.536743e-7,-7.629395e-6)"><image
                 sodipodi:absref="/home/rick/projects/omgtransit/omgtransit-web/frontend/www/assets/images/pin-originals/ED76B2F19697A9E4.jpg"
                 xlink:href="ED76B2F19697A9E4.jpg"
                 style="overflow:visible"
                 width="181"
                 height="46"
                 transform="matrix(0.24,0,0,0.24,12.9873,109.7119)"
                 id="image3274" /></g></g></g></g></mask></defs><sodipodi:namedview
     pagecolor="#ffffff"
     bordercolor="#666666"
     borderopacity="1"
     objecttolerance="10"
     gridtolerance="10"
     guidetolerance="10"
     inkscape:pageopacity="0"
     inkscape:pageshadow="2"
     inkscape:window-width="1366"
     inkscape:window-height="743"
     id="namedview3288"
     showgrid="false"
     fit-margin-top="0"
     fit-margin-left="0"
     fit-margin-right="0"
     fit-margin-bottom="0"
     inkscape:zoom="1.9882056"
     inkscape:cx="35.249999"
     inkscape:cy="49.349999"
     inkscape:window-x="0"
     inkscape:window-y="0"
     inkscape:window-maximized="1"
     inkscape:current-layer="Layer_1" /><path
     inkscape:connector-curvature="0"
     id="path3240"
     d="m 70.499999,35.2 c 0,19.5 -21.5,44.2 -35.2,73.5 C 20.799999,79.4 -9.0627182e-7,54.7 -9.0627182e-7,35.2 -9.0627182e-7,15.7 15.799999,0 35.199999,0 c 19.5,0 35.3,15.8 35.3,35.2"
     style="fill:#ffc200" /><path
     inkscape:connector-curvature="0"
     id="path3242"
     d="m 53.299999,15.2 h -36.1 l -6.1,25.3 1.3,7.6 -0.9,1.1 1.5,5.1 h 2.2 v 2.1 c 0,0.8 0.6,1.4 1.4,1.4 h 1.9 2.1 2 c 0.8,0 1.4,-0.6 1.4,-1.4 v -2.1 h 22.5 v 2.1 c 0,0.8 0.6,1.4 1.4,1.4 h 2 2 2 c 0.8,0 1.4,-0.6 1.4,-1.4 v -2.1 h 2.2 l 1.5,-5.1 -0.9,-1.1 1.3,-7.6 -6.1,-25.3 z m -37.1,14.6 2.6,-12.5 h 32.5 l 3,12.5 c 0,0 -7,2.3 -19.1,2.3 -12,0.1 -19,-2.3 -19,-2.3"
     style="fill:#ffffff" /><path
     inkscape:connector-curvature="0"
     id="path3244"
     d="m 14.899999,30.6 c 0,1.2 -1,2.2 -2.2,2.2 H 9.4999991 c -1.2,0 -2.2,-1 -2.2,-2.2 0,-1.2 1,-2.2 2.2,-2.2 h 4.9999999 c 1.2,0 0.4,1 0.4,2.2"
     style="fill:#ffffff" /><path
     inkscape:connector-curvature="0"
     id="path3246"
     d="m 62.799999,30.6 c 0,1.2 -1,2.2 -2.2,2.2 h -3.2 c -1.2,0 -2.2,-1 -2.2,-2.2 0,-1.2 -0.9,-2.2 0.3,-2.2 h 5 c 1.3,0 2.3,1 2.3,2.2"
     style="fill:#ffffff" /><path
     inkscape:connector-curvature="0"
     id="path3248"
     d="m 14.499999,44.9 c 0,0 -2.1,-5.7 1,-5.2 3.1,0.6 8.8,2.9 8.7,4.5 0,1.6 -3.4,1.3 -9.7,0.7"
     style="fill:#05aee5" /><path
     inkscape:connector-curvature="0"
     id="path3250"
     d="m 56.099999,44.9 c 0,0 2.1,-5.7 -1,-5.2 -3.1,0.6 -8.8,2.9 -8.7,4.5 0,1.6 3.4,1.3 9.7,0.7"
     style="fill:#05aee5" /></svg>
