<?xml version="1.0" encoding="UTF-8" standalone="no"?>
<!-- Generator: Adobe Illustrator 16.0.0, SVG Export Plug-In . SVG Version: 6.00 Build 0)  -->

<svg
   xmlns:dc="http://purl.org/dc/elements/1.1/"
   xmlns:cc="http://creativecommons.org/ns#"
   xmlns:rdf="http://www.w3.org/1999/02/22-rdf-syntax-ns#"
   xmlns:svg="http://www.w3.org/2000/svg"
   xmlns="http://www.w3.org/2000/svg"
   xmlns:xlink="http://www.w3.org/1999/xlink"
   xmlns:sodipodi="http://sodipodi.sourceforge.net/DTD/sodipodi-0.dtd"
   xmlns:inkscape="http://www.inkscape.org/namespaces/inkscape"
   version="1.1"
   id="Layer_1"
   x="0px"
   y="0px"
   width="70.5"
   height="108.7"
   viewBox="0 0 70.5 108.7"
   xml:space="preserve"
   inkscape:version="0.48.4 r9939"
   sodipodi:docname="pin-zipcar.svg"><metadata
     id="metadata3392"><rdf:RDF><cc:Work
         rdf:about=""><dc:format>image/svg+xml</dc:format><dc:type
           rdf:resource="http://purl.org/dc/dcmitype/StillImage" /></cc:Work></rdf:RDF></metadata><defs
     id="defs3390"><defs
       id="defs3352"><filter
         height="7"
         width="39.400002"
         y="111.7"
         x="14.9"
         filterUnits="userSpaceOnUse"
         id="Adobe_OpacityMaskFilter"
         color-interpolation-filters="sRGB"><feFlood
           id="feFlood3355"
           result="back" /><feBlend
           id="feBlend3357"
           mode="normal"
           in2="back"
           in="SourceGraphic" /></filter></defs><mask
       id="SVGID_1_"
       height="7"
       width="39.4"
       y="111.7"
       x="14.9"
       maskUnits="userSpaceOnUse"><g
         id="g3360"
         style="filter:url(#Adobe_OpacityMaskFilter)"><g
           id="g3362"
           style="enable-background:new"><g
             id="g3364"><defs
               id="defs3366"><rect
                 height="11"
                 width="43.400002"
                 y="109.7"
                 x="12.9"
                 id="SVGID_22_" /></defs><clipPath
               id="SVGID_3_"><use
                 id="use3370"
                 style="overflow:visible"
                 xlink:href="#SVGID_22_"
                 x="0"
                 y="0"
                 width="70.5"
                 height="118.7" /></clipPath><g
               clip-path="url(#SVGID_3_)"
               id="g3372"
               transform="translate(0,-7.629395e-6)"><image
                 sodipodi:absref="/home/rick/projects/omgtransit/omgtransit-web/frontend/www/assets/images/pin-originals/ED87890B0AB45276.jpg"
                 xlink:href="ED87890B0AB45276.jpg"
                 style="overflow:visible"
                 width="181"
                 height="46"
                 transform="matrix(0.24,0,0,0.24,12.8662,109.7119)"
                 id="image3374" /></g></g></g></g></mask></defs><sodipodi:namedview
     pagecolor="#ffffff"
     bordercolor="#666666"
     borderopacity="1"
     objecttolerance="10"
     gridtolerance="10"
     guidetolerance="10"
     inkscape:pageopacity="0"
     inkscape:pageshadow="2"
     inkscape:window-width="1366"
     inkscape:window-height="743"
     id="namedview3388"
     showgrid="false"
     fit-margin-top="0"
     fit-margin-left="0"
     fit-margin-right="0"
     fit-margin-bottom="0"
     inkscape:zoom="1.9882056"
     inkscape:cx="35.249999"
     inkscape:cy="49.349999"
     inkscape:window-x="0"
     inkscape:window-y="0"
     inkscape:window-maximized="1"
     inkscape:current-layer="Layer_1" /><path
     inkscape:connector-curvature="0"
     id="path3346"
     d="m 70.499999,35.2 c 0,19.5 -21.5,44.2 -35.2,73.5 C 20.799999,79.4 -9.0627182e-7,54.7 -9.0627182e-7,35.2 -9.0627182e-7,15.7 15.799999,0 35.199999,0 c 19.4,0 35.3,15.8 35.3,35.2"
     style="fill:#59ad40" /><path
     inkscape:connector-curvature="0"
     id="path3348"
     d="m 65.199999,47.8 c 0.2,-0.4 0.3,-0.9 0.5,-1.4 h -26.4 l 1.3,-1.6 h 18.3 c 0.4,0 0.7,-0.3 0.7,-0.7 0,-0.4 -0.3,-0.7 -0.7,-0.7 h -17.3 l 1.3,-1.6 h 9.3 c 0.3,0 0.6,-0.3 0.6,-0.7 0,-0.4 -0.3,-0.7 -0.6,-0.7 h -24.7 l 15.1,-19.7 h -24.8 v 5.4 h 13.2 l -13.9,18 -2.9,3.6 c 0,0 8.6,0 8.6,0 h 2.4 c 0.9,-2.3 3.2,-3.9 5.8,-3.9 2.6,0 4.9,1.6 5.8,3.9 h 28.4 z"
     style="fill:#ffffff" /><path
     inkscape:connector-curvature="0"
     id="path3350"
     d="m 35.999999,50.2 c 0,2.7 -2.2,4.9 -4.9,4.9 -2.7,0 -4.9,-2.2 -4.9,-4.9 0,-2.7 2.2,-4.9 4.9,-4.9 2.7,0.1 4.9,2.2 4.9,4.9"
     style="fill:#5a5b5d" /></svg>