<?xml version="1.0" encoding="UTF-8" standalone="no"?>
<!-- Generator: Adobe Illustrator 16.0.0, SVG Export Plug-In . SVG Version: 6.00 Build 0)  -->

<svg
   xmlns:dc="http://purl.org/dc/elements/1.1/"
   xmlns:cc="http://creativecommons.org/ns#"
   xmlns:rdf="http://www.w3.org/1999/02/22-rdf-syntax-ns#"
   xmlns:svg="http://www.w3.org/2000/svg"
   xmlns="http://www.w3.org/2000/svg"
   xmlns:sodipodi="http://sodipodi.sourceforge.net/DTD/sodipodi-0.dtd"
   xmlns:inkscape="http://www.inkscape.org/namespaces/inkscape"
   version="1.1"
   id="Layer_1"
   x="0px"
   y="0px"
   width="70.5"
   height="108.7"
   viewBox="0 0 70.5 108.7"
   xml:space="preserve"
   inkscape:version="0.48.4 r9939"
   sodipodi:docname="pin-bus.svg"><metadata
     id="metadata3151"><rdf:RDF><cc:Work
         rdf:about=""><dc:format>image/svg+xml</dc:format><dc:type
           rdf:resource="http://purl.org/dc/dcmitype/StillImage" /></cc:Work></rdf:RDF></metadata><defs
     id="defs3149" /><sodipodi:namedview
     pagecolor="#ffffff"
     bordercolor="#666666"
     borderopacity="1"
     objecttolerance="10"
     gridtolerance="10"
     guidetolerance="10"
     inkscape:pageopacity="0"
     inkscape:pageshadow="2"
     inkscape:window-width="1366"
     inkscape:window-height="743"
     id="namedview3147"
     showgrid="false"
     fit-margin-top="0"
     fit-margin-left="0"
     fit-margin-right="0"
     fit-margin-bottom="0"
     inkscape:zoom="1.9882056"
     inkscape:cx="35.249999"
     inkscape:cy="49.349999"
     inkscape:window-x="0"
     inkscape:window-y="0"
     inkscape:window-maximized="1"
     inkscape:current-layer="Layer_1" /><g
     id="g3103"><path
       style="fill:#ffc200"
       d="M 70.5,35.2 C 70.5,54.7 49,79.4 35.3,108.7 20.8,79.4 0,54.7 0,35.2 0,15.7 15.8,0 35.2,0 54.7,0 70.5,15.8 70.5,35.2"
       id="path3105"
       inkscape:connector-curvature="0" /><path
       style="fill:#ffffff"
       d="m 55.6,17.6 c 0,0 -0.7,-4.6 -5.5,-4.6 H 20.4 c -4.8,0 -5.5,4.6 -5.5,4.6 l -0.9,28.6 1.2,6.7 -0.8,0.9 1.3,4.5 h 1.9 v 1.8 c 0,0.7 0.5,1.2 1.2,1.2 h 1.7 1.9 1.7 c 0.7,0 1.2,-0.5 1.2,-1.2 v -1.8 h 19.8 v 1.8 c 0,0.7 0.5,1.2 1.2,1.2 h 1.8 1.8 1.8 c 0.7,0 1.2,-0.5 1.2,-1.2 v -1.8 h 1.9 l 1.3,-4.5 -0.8,-0.9 1.2,-6.7 -0.9,-28.6 z M 20.1,16.2 c 0,-0.7 0.5,-1.2 1.2,-1.2 h 27.8 c 0.7,0 1.2,0.5 1.2,1.2 v 3.1 c 0,0.7 -0.5,1.2 -1.2,1.2 H 21.3 c -0.7,0 -1.2,-0.5 -1.2,-1.2 l 0,-3.1 z m 3.7,34.6 -6.9,-0.6 -0.7,-4 c 0,0 3.2,0.7 7.7,1.3 l -0.1,3.3 z m -6.3,-8 0.3,-19.1 7.4,-0.8 H 45 l 7.4,0.8 0.6,19.1 c 0,0 -7.2,2 -17.8,2 -10.5,0.1 -17.7,-2 -17.7,-2 m 36.1,7.4 -6.9,0.6 0,-3.2 c 4.5,-0.6 7.7,-1.3 7.7,-1.3 l -0.8,3.9 z"
       id="path3107"
       inkscape:connector-curvature="0" /></g></svg>
