<?xml version="1.0" encoding="UTF-8" standalone="no"?>
<!-- Generator: Adobe Illustrator 16.0.0, SVG Export Plug-In . SVG Version: 6.00 Build 0)  -->

<svg
   xmlns:dc="http://purl.org/dc/elements/1.1/"
   xmlns:cc="http://creativecommons.org/ns#"
   xmlns:rdf="http://www.w3.org/1999/02/22-rdf-syntax-ns#"
   xmlns:svg="http://www.w3.org/2000/svg"
   xmlns="http://www.w3.org/2000/svg"
   xmlns:xlink="http://www.w3.org/1999/xlink"
   xmlns:sodipodi="http://sodipodi.sourceforge.net/DTD/sodipodi-0.dtd"
   xmlns:inkscape="http://www.inkscape.org/namespaces/inkscape"
   version="1.1"
   id="Layer_1"
   x="0px"
   y="0px"
   width="70.5"
   height="108.7"
   viewBox="0 0 70.5 108.7"
   xml:space="preserve"
   inkscape:version="0.48.4 r9939"
   sodipodi:docname="pin-train.svg"><metadata
     id="metadata3341"><rdf:RDF><cc:Work
         rdf:about=""><dc:format>image/svg+xml</dc:format><dc:type
           rdf:resource="http://purl.org/dc/dcmitype/StillImage" /></cc:Work></rdf:RDF></metadata><defs
     id="defs3339"><defs
       id="defs3301"><filter
         height="7"
         width="39.400002"
         y="111.7"
         x="15.5"
         filterUnits="userSpaceOnUse"
         id="Adobe_OpacityMaskFilter"
         color-interpolation-filters="sRGB"><feFlood
           id="feFlood3304"
           result="back" /><feBlend
           id="feBlend3306"
           mode="normal"
           in2="back"
           in="SourceGraphic" /></filter></defs><mask
       id="SVGID_1_"
       height="7"
       width="39.4"
       y="111.7"
       x="15.5"
       maskUnits="userSpaceOnUse"><g
         id="g3309"
         style="filter:url(#Adobe_OpacityMaskFilter)"><g
           id="g3311"
           style="enable-background:new"><g
             id="g3313"><defs
               id="defs3315"><rect
                 height="11"
                 width="43.400002"
                 y="109.7"
                 x="13.5"
                 id="SVGID_32_" /></defs><clipPath
               id="SVGID_3_"><use
                 id="use3319"
                 style="overflow:visible"
                 xlink:href="#SVGID_32_"
                 x="0"
                 y="0"
                 width="70.5"
                 height="118.7" /></clipPath><g
               clip-path="url(#SVGID_3_)"
               id="g3321"
               transform="translate(-9.536743e-7,-7.629395e-6)"><image
                 sodipodi:absref="/home/rick/projects/omgtransit/omgtransit-web/frontend/www/assets/images/pin-originals/ED5D71CB686CAD0B.jpg"
                 xlink:href="ED5D71CB686CAD0B.jpg"
                 style="overflow:visible"
                 width="181"
                 height="46"
                 transform="matrix(0.24,0,0,0.24,13.4619,109.7119)"
                 id="image3323" /></g></g></g></g></mask></defs><sodipodi:namedview
     pagecolor="#ffffff"
     bordercolor="#666666"
     borderopacity="1"
     objecttolerance="10"
     gridtolerance="10"
     guidetolerance="10"
     inkscape:pageopacity="0"
     inkscape:pageshadow="2"
     inkscape:window-width="1366"
     inkscape:window-height="743"
     id="namedview3337"
     showgrid="false"
     fit-margin-top="0"
     fit-margin-left="0"
     fit-margin-right="0"
     fit-margin-bottom="0"
     inkscape:zoom="1.9882056"
     inkscape:cx="35.249999"
     inkscape:cy="49.349999"
     inkscape:window-x="0"
     inkscape:window-y="0"
     inkscape:window-maximized="1"
     inkscape:current-layer="Layer_1" /><path
     inkscape:connector-curvature="0"
     id="path3297"
     d="m 70.499999,35.2 c 0,19.5 -21.5,44.2 -35.2,73.5 C 20.799999,79.4 -9.0627182e-7,54.7 -9.0627182e-7,35.2 -9.0627182e-7,15.7 15.799999,0 35.199999,0 c 19.5,0 35.3,15.8 35.3,35.2"
     style="fill:#23598e" /><path
     inkscape:connector-curvature="0"
     id="path3299"
     d="m 55.999999,45.4 -0.9,-28.1 c 0,0 -0.7,-4.6 -5.4,-4.6 h -29.1 c -4.7,0 -5.4,4.6 -5.4,4.6 l -0.9,28.1 1.2,6.5 -0.7,0.9 0.8,3.4 h 2.4 l 0.5,3.9 h 5.8 l -5.6,10.1 h 3.4 l 5.6,-10.1 h 14.9 l 5.6,10.1 h 3.4 l -5.6,-10.1 h 5.8 l 0.5,-3.9 h 2.5 l 0.8,-3.4 -0.7,-0.8 1.1,-6.6 z m -20.8,-30.9 c 1,0 1.9,0.8 1.9,1.9 0,1 -0.8,1.9 -1.9,1.9 -1.1,0 -1.9,-0.8 -1.9,-1.9 0,-1 0.9,-1.9 1.9,-1.9 m -15.7,35.5 c -1,0 -1.9,-0.8 -1.9,-1.9 0,-1 0.8,-1.9 1.9,-1.9 1,0 1.9,0.8 1.9,1.9 0,1.1 -0.9,1.9 -1.9,1.9 m -1.9,-7.7 0.4,-21.9 7.3,-0.8 h 19.4 l 7.3,0.8 0.5,21.9 c 0,0 -7.1,2 -17.4,2 -10.5,0 -17.5,-2 -17.5,-2 m 33.1,7.7 c -1,0 -1.9,-0.8 -1.9,-1.9 0,-1 0.8,-1.9 1.9,-1.9 1,0 1.9,0.8 1.9,1.9 -0.1,1.1 -0.9,1.9 -1.9,1.9"
     style="fill:#ffffff" /></svg>