<?xml version="1.0" encoding="UTF-8" standalone="no"?>
<!-- Generator: Adobe Illustrator 16.0.0, SVG Export Plug-In . SVG Version: 6.00 Build 0)  -->

<svg
   xmlns:dc="http://purl.org/dc/elements/1.1/"
   xmlns:cc="http://creativecommons.org/ns#"
   xmlns:rdf="http://www.w3.org/1999/02/22-rdf-syntax-ns#"
   xmlns:svg="http://www.w3.org/2000/svg"
   xmlns="http://www.w3.org/2000/svg"
   xmlns:xlink="http://www.w3.org/1999/xlink"
   xmlns:sodipodi="http://sodipodi.sourceforge.net/DTD/sodipodi-0.dtd"
   xmlns:inkscape="http://www.inkscape.org/namespaces/inkscape"
   version="1.1"
   id="Layer_1"
   x="0px"
   y="0px"
   width="70.5"
   height="108.7"
   viewBox="0 0 70.5 108.7"
   xml:space="preserve"
   inkscape:version="0.48.4 r9939"
   sodipodi:docname="pin-car2go.svg"><metadata
     id="metadata3210"><rdf:RDF><cc:Work
         rdf:about=""><dc:format>image/svg+xml</dc:format><dc:type
           rdf:resource="http://purl.org/dc/dcmitype/StillImage" /></cc:Work></rdf:RDF></metadata><defs
     id="defs3208"><defs
       id="defs3170"><filter
         height="7"
         width="39.400002"
         y="111.7"
         x="14.9"
         filterUnits="userSpaceOnUse"
         id="Adobe_OpacityMaskFilter"
         color-interpolation-filters="sRGB"><feFlood
           id="feFlood3173"
           result="back" /><feBlend
           id="feBlend3175"
           mode="normal"
           in2="back"
           in="SourceGraphic" /></filter></defs><mask
       id="SVGID_1_"
       height="7"
       width="39.4"
       y="111.7"
       x="14.9"
       maskUnits="userSpaceOnUse"><g
         id="g3178"
         style="filter:url(#Adobe_OpacityMaskFilter)"><g
           id="g3180"
           style="enable-background:new"><g
             id="g3182"><defs
               id="defs3184"><rect
                 height="11"
                 width="43.400002"
                 y="109.7"
                 x="12.9"
                 id="SVGID_17_" /></defs><clipPath
               id="SVGID_3_"><use
                 id="use3188"
                 style="overflow:visible"
                 xlink:href="#SVGID_17_"
                 x="0"
                 y="0"
                 width="70.5"
                 height="118.7" /></clipPath><g
               clip-path="url(#SVGID_3_)"
               id="g3190"
               transform="translate(-9.536743e-7,-7.629395e-6)"><image
                 sodipodi:absref="/home/rick/projects/omgtransit/omgtransit-web/frontend/www/assets/images/pin-originals/ED7F1DFE50A5FE2F.jpg"
                 xlink:href="ED7F1DFE50A5FE2F.jpg"
                 style="overflow:visible"
                 width="181"
                 height="46"
                 transform="matrix(0.24,0,0,0.24,12.8506,109.7119)"
                 id="image3192" /></g></g></g></g></mask></defs><sodipodi:namedview
     pagecolor="#ffffff"
     bordercolor="#666666"
     borderopacity="1"
     objecttolerance="10"
     gridtolerance="10"
     guidetolerance="10"
     inkscape:pageopacity="0"
     inkscape:pageshadow="2"
     inkscape:window-width="1366"
     inkscape:window-height="743"
     id="namedview3206"
     showgrid="false"
     showguides="true"
     inkscape:guide-bbox="true"
     fit-margin-top="0"
     fit-margin-left="0"
     fit-margin-right="0"
     fit-margin-bottom="0"
     inkscape:zoom="1.9882056"
     inkscape:cx="35.249999"
     inkscape:cy="49.349999"
     inkscape:window-x="0"
     inkscape:window-y="0"
     inkscape:window-maximized="1"
     inkscape:current-layer="Layer_1"><sodipodi:guide
       orientation="0,1"
       position="101.09618,28.728389"
       id="guide3474" /></sodipodi:namedview><path
     inkscape:connector-curvature="0"
     id="path3156"
     d="m 70.499999,35.2 c 0,19.5 -21.5,44.2 -35.2,73.5 C 20.799999,79.4 -9.0627182e-7,54.7 -9.0627182e-7,35.2 -9.0627182e-7,15.7 15.799999,0 35.199999,0 c 19.4,0 35.3,15.8 35.3,35.2"
     style="fill:#05aee5" /><path
     inkscape:connector-curvature="0"
     id="path3158"
     d="m 14.399999,18.5 c -2.3,0 -4.5999999,2.3 -4.5999999,4.6 v 6.1 c 0,2.3 2.2999999,4.6 4.5999999,4.6 h 10.7 v -3 h -10.7 c -1.5,0 -1.6,-1.4 -1.6,-1.6 v -6.1 c 0,-0.2 0.1,-1.6 1.6,-1.6 h 10.7 v -3 h -10.7 z"
     style="fill:#ffffff" /><path
     inkscape:connector-curvature="0"
     id="path3160"
     d="m 14.399999,36.5 c -3.6,0 -4.5999999,3 -4.5999999,4.6 v 0.5 h 2.9999999 l 0,-0.5 c 0,-0.2 0.1,-1.6 1.6,-1.6 h 6.2 c 1.2,0 1.5,0.9 1.5,1.6 0,1.1 -0.5,1.6 -1.6,1.6 h -6.1 c -2.4,0 -4.5999999,2.3 -4.5999999,4.7 v 4.5 H 25.099999 v -3 h -12.3 v -1.5 c 0,-0.2 0.1,-1.7 1.6,-1.7 h 6.1 c 2.3,0 4.6,-2.2 4.6,-4.6 0,-2.4 -2.1,-4.6 -4.5,-4.6 h -6.2 z"
     style="fill:#ffffff" /><path
     inkscape:connector-curvature="0"
     id="path3162"
     d="m 38.299999,18.5 h -6.1 c -2.3,0 -4.6,2.3 -4.6,4.6 v 10.7 h 3 v -4.1 h 9.3 v 4.1 h 3 V 23.1 c 0,-2.3 -2.3,-4.6 -4.6,-4.6 m 1.6,8.2 h -9.3 v -3.6 c 0,-0.8 0.8,-1.6 1.6,-1.6 h 6.1 c 0.8,0 1.6,0.8 1.6,1.6 v 3.6 z"
     style="fill:#ffffff" /><path
     inkscape:connector-curvature="0"
     id="path3164"
     d="m 32.199999,36.5 c -2.3,0 -4.6,2.2 -4.6,4.5 v 6.2 c 0,2.3 2.3,4.5 4.6,4.5 h 10.7 v -9.1 h -9.1 v 3 h 6.1 v 3.2 h -7.7 c -1.5,0 -1.6,-1.4 -1.6,-1.5 V 41 c 0,-0.2 0.1,-1.6 1.6,-1.6 h 10.7 v -3 h -10.7 z"
     style="fill:#ffffff" /><path
     inkscape:connector-curvature="0"
     id="path3166"
     d="m 59.199999,26.2 c 0.6,-0.5 1.4,-1.6 1.4,-3.1 0,-2.3 -2.3,-4.6 -4.6,-4.6 h -10.6 v 15.3 h 3 v -6.1 h 7.7 c 1.5,0 1.6,1.4 1.6,1.6 v 4.6 h 3 v -4.5 c -0.1,-1.7 -0.9,-2.7 -1.5,-3.2 m -3.2,-1.5 h -7.7 v -3.1 h 7.7 c 1.5,0 1.6,1.4 1.6,1.6 0,0 -0.1,1.5 -1.6,1.5"
     style="fill:#ffffff" /><path
     inkscape:connector-curvature="0"
     id="path3168"
     d="m 56.099999,36.5 h -6.1 c -2.3,0 -4.6,2.3 -4.6,4.6 v 6.1 c 0,2.3 2.3,4.6 4.6,4.6 h 6.1 c 2.3,0 4.6,-2.3 4.6,-4.6 V 41 c -0.1,-2.3 -2.3,-4.5 -4.6,-4.5 m 1.6,10.7 c 0,1.5 -1.4,1.6 -1.6,1.6 h -6.1 c -0.2,0 -1.6,-0.1 -1.6,-1.6 V 41 c 0,-1.5 1.4,-1.6 1.6,-1.6 h 6.1 c 0.2,0 1.6,0.1 1.6,1.6 v 6.2 z"
     style="fill:#ffffff" /></svg>