<?xml version="1.0" encoding="UTF-8" standalone="no"?>
<!-- Generator: Adobe Illustrator 16.0.0, SVG Export Plug-In . SVG Version: 6.00 Build 0)  -->

<svg
   xmlns:dc="http://purl.org/dc/elements/1.1/"
   xmlns:cc="http://creativecommons.org/ns#"
   xmlns:rdf="http://www.w3.org/1999/02/22-rdf-syntax-ns#"
   xmlns:svg="http://www.w3.org/2000/svg"
   xmlns="http://www.w3.org/2000/svg"
   xmlns:xlink="http://www.w3.org/1999/xlink"
   xmlns:sodipodi="http://sodipodi.sourceforge.net/DTD/sodipodi-0.dtd"
   xmlns:inkscape="http://www.inkscape.org/namespaces/inkscape"
   version="1.1"
   id="Layer_1"
   x="0px"
   y="0px"
   width="70.5"
   height="108.7"
   viewBox="0 0 70.5 108.7"
   xml:space="preserve"
   inkscape:version="0.48.4 r9939"
   sodipodi:docname="pin-airport.svg"><metadata
     id="metadata3077"><rdf:RDF><cc:Work
         rdf:about=""><dc:format>image/svg+xml</dc:format><dc:type
           rdf:resource="http://purl.org/dc/dcmitype/StillImage" /></cc:Work></rdf:RDF></metadata><defs
     id="defs3075"><defs
       id="defs3037"><filter
         height="7"
         width="39.400002"
         y="111.7"
         x="14.9"
         filterUnits="userSpaceOnUse"
         id="Adobe_OpacityMaskFilter"
         color-interpolation-filters="sRGB"><feFlood
           id="feFlood3040"
           result="back" /><feBlend
           id="feBlend3042"
           mode="normal"
           in2="back"
           in="SourceGraphic" /></filter></defs><mask
       id="SVGID_1_"
       height="7"
       width="39.4"
       y="111.7"
       x="14.9"
       maskUnits="userSpaceOnUse"><g
         id="g3045"
         style="filter:url(#Adobe_OpacityMaskFilter)"><g
           id="g3047"
           style="enable-background:new"><g
             id="g3049"><defs
               id="defs3051"><rect
                 height="11"
                 width="43.400002"
                 y="109.7"
                 x="12.9"
                 id="SVGID_27_" /></defs><clipPath
               id="SVGID_3_"><use
                 id="use3055"
                 style="overflow:visible"
                 xlink:href="#SVGID_27_"
                 x="0"
                 y="0"
                 width="70.5"
                 height="118.7" /></clipPath><g
               clip-path="url(#SVGID_3_)"
               id="g3057"
               transform="translate(0,-7.629395e-6)"><image
                 sodipodi:absref="/home/rick/projects/omgtransit/omgtransit-web/frontend/www/assets/images/pin-originals/ED8FF417C4C2A6C1.jpg"
                 xlink:href="ED8FF417C4C2A6C1.jpg"
                 style="overflow:visible"
                 width="181"
                 height="46"
                 transform="matrix(0.24,0,0,0.24,12.8662,109.7119)"
                 id="image3059" /></g></g></g></g></mask></defs><sodipodi:namedview
     pagecolor="#ffffff"
     bordercolor="#666666"
     borderopacity="1"
     objecttolerance="10"
     gridtolerance="10"
     guidetolerance="10"
     inkscape:pageopacity="0"
     inkscape:pageshadow="2"
     inkscape:window-width="1366"
     inkscape:window-height="743"
     id="namedview3073"
     showgrid="false"
     fit-margin-top="0"
     fit-margin-left="0"
     fit-margin-right="0"
     fit-margin-bottom="0"
     inkscape:zoom="1.9882056"
     inkscape:cx="35.249999"
     inkscape:cy="49.349999"
     inkscape:window-x="0"
     inkscape:window-y="0"
     inkscape:window-maximized="1"
     inkscape:current-layer="Layer_1" /><g
     id="g3031"><path
       inkscape:connector-curvature="0"
       id="path3033"
       d="M 70.5,35.2 C 70.5,54.7 49,79.4 35.3,108.7 20.8,79.4 0,54.7 0,35.2 0,15.7 15.8,0 35.2,0 54.6,0 70.5,15.8 70.5,35.2"
       style="fill:#78238c" /><path
       inkscape:connector-curvature="0"
       id="path3035"
       d="M 60.3,50.9 V 46.4 L 39.3,30.9 C 39,19.7 37.3,11.1 35.2,11.1 c -2.1,0 -3.8,8.6 -4.1,19.8 l -21,15.5 v 4.5 l 21,-9.9 c 0.3,5.7 0.9,10.6 1.8,13.7 L 27,59.5 v 2.2 l 8.2,-1.3 8.2,1.3 v -2.2 l -5.9,-4.8 c 0.9,-3.1 1.5,-8 1.8,-13.7 l 21,9.9 z"
       style="fill:#ffffff" /></g></svg>