<?xml version="1.0" encoding="utf-8"?>
<!-- Generator: Adobe Illustrator 17.1.0, SVG Export Plug-In . SVG Version: 6.00 Build 0)  -->
<!DOCTYPE svg PUBLIC "-//W3C//DTD SVG 1.1//EN" "http://www.w3.org/Graphics/SVG/1.1/DTD/svg11.dtd">
<svg version="1.1" id="Layer_1" xmlns="http://www.w3.org/2000/svg" xmlns:xlink="http://www.w3.org/1999/xlink" x="0px" y="0px"
	 viewBox="0 0 70.488 105.784" enable-background="new 0 0 70.488 105.784" xml:space="preserve">
<g>
	<path fill="#05AEE5" d="M70.488,35.244c0,19.465-35.244,70.54-35.244,70.54S0,54.709,0,35.244S15.779,0,35.244,0
		S70.488,15.779,70.488,35.244z"/>
	<g>
		<g>
			<path fill="#FFFFFF" d="M53.389,41.151c-2.264,0-4.098,1.834-4.098,4.098c0,2.264,1.834,4.099,4.098,4.099
				c2.264,0,4.098-1.835,4.098-4.099C57.487,42.985,55.652,41.151,53.389,41.151z"/>
			<path fill="#FFFFFF" d="M16.944,49.348c-2.389,0-4.325-1.936-4.325-4.325c0-2.389,1.936-4.325,4.325-4.325
				c2.389,0,4.325,1.937,4.325,4.325C21.27,47.412,19.333,49.348,16.944,49.348z"/>
			<path fill="#FFFFFF" d="M61.198,39.617c-0.301-0.931-1.057-0.906-0.578-1.787c0.333-0.614,0.224-1.653-0.051-2.089
				c-0.428-0.679-6.684-4.694-6.777-4.707c-0.556-0.44-8.459-6.673-11.391-8.046v3.347c2.248,1.324,5.019,3.376,8.831,6.621
				l0.786,0.744c-0.395-0.005-5.895-0.565-7.242-0.713L42.4,32.811v13.928l5.326-0.037c0,0-0.184-0.951-0.184-1.453
				c0-3.224,2.623-5.847,5.846-5.847c3.224,0,5.846,2.623,5.846,5.847c0,0.241-0.017,0.479-0.045,0.712
				c0.071,0.104,0.125,0.228,0.146,0.376c0.1,0.73,1.158,1.334,1.535-0.126C61.248,44.752,61.5,40.549,61.198,39.617z"/>
			<path fill="#FFFFFF" d="M27.117,46.842V21.443c-4.301,0.389-9.73,0.933-10.519,1.102c-0.023,0.005-0.114,0.007-0.129,0.032
				c-0.075,0.126-0.177,0.428-0.202,1.208c-0.023,0.732-3.412,4.962-3.771,6.253c-0.011,0.007-0.02,0.017-0.026,0.03
				c-0.005,0.01-0.123,0.256-0.028,0.467c0.032,0.071,0.086,0.127,0.155,0.17c-0.082,0.073-0.191,0.183-0.219,0.267
				c-1.127,0.659-0.653,2.447-0.629,2.529v0.084c-0.695,0.868-0.345,2.293-0.233,2.677c-0.183,0.253-0.732,1-1.064,1.291
				c-0.403,0.352-1.762,4.732-1.133,7.702c0,0,1.322,0.431,1.597,0.493c-0.029-0.238-0.045-0.48-0.045-0.726
				c0-3.348,2.724-6.073,6.072-6.073c3.348,0,6.073,2.724,6.073,6.073c0,0.645-0.289,1.849-0.289,1.849L27.117,46.842z"/>
		</g>
		<path fill="#FFFFFF" d="M40.143,49.348V18.594h-10.87v30.754h-1.124v2.107h12.869v-2.107H40.143z M31.022,20.718h7.372v10.87
			h-7.372V20.718z"/>
	</g>
</g>
</svg>
